<mxfile host="app.diagrams.net" modified="2023-07-15T09:22:22.526Z" agent="Mozilla/5.0 (Macintosh; Intel Mac OS X 10_15_7) AppleWebKit/537.36 (KHTML, like Gecko) Chrome/114.0.0.0 Safari/537.36" etag="T602eOn5RaGwiIZ2G0pJ" version="21.3.7" type="device">
  <diagram name="Page-1" id="BMVCNV83cMeo_1BB2e8V">
    <mxGraphModel dx="1674" dy="803" grid="1" gridSize="10" guides="1" tooltips="1" connect="1" arrows="1" fold="1" page="1" pageScale="1" pageWidth="850" pageHeight="1100" math="0" shadow="0">
      <root>
        <mxCell id="0" />
        <mxCell id="1" parent="0" />
        <mxCell id="81Mp2YH9ZiAPqtVmq8xA-9" value="&lt;font style=&quot;font-size: 14px;&quot; face=&quot;Times New Roman&quot;&gt;Visual Weather&lt;/font&gt;" style="rounded=1;whiteSpace=wrap;html=1;" vertex="1" parent="1">
          <mxGeometry x="500" y="521" width="110" height="50" as="geometry" />
        </mxCell>
        <mxCell id="81Mp2YH9ZiAPqtVmq8xA-10" value="&lt;font face=&quot;Times New Roman&quot; style=&quot;font-size: 14px;&quot;&gt;Food Department&lt;/font&gt;" style="rounded=1;whiteSpace=wrap;html=1;" vertex="1" parent="1">
          <mxGeometry x="10" y="500" width="110" height="50" as="geometry" />
        </mxCell>
        <mxCell id="81Mp2YH9ZiAPqtVmq8xA-11" value="&lt;font style=&quot;font-size: 14px;&quot; face=&quot;Times New Roman&quot;&gt;School Info&amp;nbsp;&lt;/font&gt;" style="rounded=1;whiteSpace=wrap;html=1;" vertex="1" parent="1">
          <mxGeometry x="10" y="560" width="110" height="50" as="geometry" />
        </mxCell>
        <mxCell id="81Mp2YH9ZiAPqtVmq8xA-33" style="edgeStyle=orthogonalEdgeStyle;curved=1;rounded=0;orthogonalLoop=1;jettySize=auto;html=1;entryX=0;entryY=0.5;entryDx=0;entryDy=0;exitX=1;exitY=0.25;exitDx=0;exitDy=0;" edge="1" parent="1" source="81Mp2YH9ZiAPqtVmq8xA-12" target="81Mp2YH9ZiAPqtVmq8xA-19">
          <mxGeometry relative="1" as="geometry" />
        </mxCell>
        <mxCell id="81Mp2YH9ZiAPqtVmq8xA-72" value="&lt;font face=&quot;Times New Roman&quot; style=&quot;font-size: 14px;&quot;&gt;2&lt;/font&gt;" style="edgeLabel;html=1;align=center;verticalAlign=middle;resizable=0;points=[];" vertex="1" connectable="0" parent="81Mp2YH9ZiAPqtVmq8xA-33">
          <mxGeometry x="0.1158" y="-1" relative="1" as="geometry">
            <mxPoint as="offset" />
          </mxGeometry>
        </mxCell>
        <mxCell id="81Mp2YH9ZiAPqtVmq8xA-39" style="edgeStyle=orthogonalEdgeStyle;curved=1;rounded=0;orthogonalLoop=1;jettySize=auto;html=1;exitX=1;exitY=0.75;exitDx=0;exitDy=0;entryX=0;entryY=0.75;entryDx=0;entryDy=0;" edge="1" parent="1" source="81Mp2YH9ZiAPqtVmq8xA-12" target="81Mp2YH9ZiAPqtVmq8xA-15">
          <mxGeometry relative="1" as="geometry" />
        </mxCell>
        <mxCell id="81Mp2YH9ZiAPqtVmq8xA-69" value="&lt;font face=&quot;Times New Roman&quot; style=&quot;font-size: 14px;&quot;&gt;6&lt;/font&gt;" style="edgeLabel;html=1;align=center;verticalAlign=middle;resizable=0;points=[];" vertex="1" connectable="0" parent="81Mp2YH9ZiAPqtVmq8xA-39">
          <mxGeometry x="-0.167" y="-1" relative="1" as="geometry">
            <mxPoint as="offset" />
          </mxGeometry>
        </mxCell>
        <mxCell id="81Mp2YH9ZiAPqtVmq8xA-42" style="rounded=0;orthogonalLoop=1;jettySize=auto;html=1;exitX=0.75;exitY=1;exitDx=0;exitDy=0;entryX=0;entryY=0.5;entryDx=0;entryDy=0;" edge="1" parent="1" source="81Mp2YH9ZiAPqtVmq8xA-12" target="81Mp2YH9ZiAPqtVmq8xA-13">
          <mxGeometry relative="1" as="geometry" />
        </mxCell>
        <mxCell id="81Mp2YH9ZiAPqtVmq8xA-68" value="&lt;font face=&quot;Times New Roman&quot; style=&quot;font-size: 14px;&quot;&gt;6&lt;/font&gt;" style="edgeLabel;html=1;align=center;verticalAlign=middle;resizable=0;points=[];" vertex="1" connectable="0" parent="81Mp2YH9ZiAPqtVmq8xA-42">
          <mxGeometry x="0.1098" y="13" relative="1" as="geometry">
            <mxPoint as="offset" />
          </mxGeometry>
        </mxCell>
        <mxCell id="81Mp2YH9ZiAPqtVmq8xA-45" style="rounded=0;orthogonalLoop=1;jettySize=auto;html=1;exitX=0.427;exitY=-0.02;exitDx=0;exitDy=0;exitPerimeter=0;entryX=0.327;entryY=1.06;entryDx=0;entryDy=0;entryPerimeter=0;" edge="1" parent="1" source="81Mp2YH9ZiAPqtVmq8xA-12" target="81Mp2YH9ZiAPqtVmq8xA-18">
          <mxGeometry relative="1" as="geometry">
            <mxPoint x="217" y="700" as="targetPoint" />
          </mxGeometry>
        </mxCell>
        <mxCell id="81Mp2YH9ZiAPqtVmq8xA-71" value="2" style="edgeLabel;html=1;align=center;verticalAlign=middle;resizable=0;points=[];" vertex="1" connectable="0" parent="81Mp2YH9ZiAPqtVmq8xA-45">
          <mxGeometry x="-0.0936" y="1" relative="1" as="geometry">
            <mxPoint as="offset" />
          </mxGeometry>
        </mxCell>
        <mxCell id="81Mp2YH9ZiAPqtVmq8xA-61" style="edgeStyle=orthogonalEdgeStyle;curved=1;rounded=0;orthogonalLoop=1;jettySize=auto;html=1;entryX=1;entryY=0.25;entryDx=0;entryDy=0;exitX=0.5;exitY=1;exitDx=0;exitDy=0;" edge="1" parent="1" source="81Mp2YH9ZiAPqtVmq8xA-12" target="81Mp2YH9ZiAPqtVmq8xA-17">
          <mxGeometry relative="1" as="geometry">
            <mxPoint x="170" y="805" as="sourcePoint" />
            <Array as="points">
              <mxPoint x="225" y="1040" />
              <mxPoint x="1080" y="1040" />
              <mxPoint x="1080" y="534" />
            </Array>
          </mxGeometry>
        </mxCell>
        <mxCell id="81Mp2YH9ZiAPqtVmq8xA-70" value="&lt;font face=&quot;Times New Roman&quot; style=&quot;font-size: 14px;&quot;&gt;6&lt;/font&gt;" style="edgeLabel;html=1;align=center;verticalAlign=middle;resizable=0;points=[];" vertex="1" connectable="0" parent="81Mp2YH9ZiAPqtVmq8xA-61">
          <mxGeometry x="-0.2517" y="-4" relative="1" as="geometry">
            <mxPoint as="offset" />
          </mxGeometry>
        </mxCell>
        <mxCell id="81Mp2YH9ZiAPqtVmq8xA-12" value="&lt;font style=&quot;font-size: 14px;&quot; face=&quot;Times New Roman&quot;&gt;Travel API&lt;/font&gt;" style="rounded=1;whiteSpace=wrap;html=1;" vertex="1" parent="1">
          <mxGeometry x="170" y="790" width="110" height="50" as="geometry" />
        </mxCell>
        <mxCell id="81Mp2YH9ZiAPqtVmq8xA-13" value="&lt;font face=&quot;Times New Roman&quot; style=&quot;font-size: 14px;&quot;&gt;Books API&lt;/font&gt;" style="rounded=1;whiteSpace=wrap;html=1;" vertex="1" parent="1">
          <mxGeometry x="490" y="900" width="110" height="50" as="geometry" />
        </mxCell>
        <mxCell id="81Mp2YH9ZiAPqtVmq8xA-40" style="rounded=0;orthogonalLoop=1;jettySize=auto;html=1;entryX=0.75;entryY=1;entryDx=0;entryDy=0;" edge="1" parent="1" source="81Mp2YH9ZiAPqtVmq8xA-14" target="81Mp2YH9ZiAPqtVmq8xA-15">
          <mxGeometry relative="1" as="geometry" />
        </mxCell>
        <mxCell id="81Mp2YH9ZiAPqtVmq8xA-66" value="&lt;font style=&quot;font-size: 14px;&quot; face=&quot;Times New Roman&quot;&gt;6&lt;/font&gt;" style="edgeLabel;html=1;align=center;verticalAlign=middle;resizable=0;points=[];" vertex="1" connectable="0" parent="81Mp2YH9ZiAPqtVmq8xA-40">
          <mxGeometry x="0.2325" y="-1" relative="1" as="geometry">
            <mxPoint x="1" y="7" as="offset" />
          </mxGeometry>
        </mxCell>
        <mxCell id="81Mp2YH9ZiAPqtVmq8xA-41" style="rounded=0;orthogonalLoop=1;jettySize=auto;html=1;exitX=0;exitY=0.5;exitDx=0;exitDy=0;entryX=1;entryY=0.5;entryDx=0;entryDy=0;" edge="1" parent="1" source="81Mp2YH9ZiAPqtVmq8xA-14" target="81Mp2YH9ZiAPqtVmq8xA-13">
          <mxGeometry relative="1" as="geometry" />
        </mxCell>
        <mxCell id="81Mp2YH9ZiAPqtVmq8xA-65" value="&lt;font style=&quot;font-size: 14px;&quot;&gt;6&lt;/font&gt;" style="edgeLabel;html=1;align=center;verticalAlign=middle;resizable=0;points=[];" vertex="1" connectable="0" parent="81Mp2YH9ZiAPqtVmq8xA-41">
          <mxGeometry x="0.0133" y="-1" relative="1" as="geometry">
            <mxPoint as="offset" />
          </mxGeometry>
        </mxCell>
        <mxCell id="81Mp2YH9ZiAPqtVmq8xA-14" value="&lt;font face=&quot;Times New Roman&quot; style=&quot;font-size: 14px;&quot;&gt;Currency Exchange&lt;/font&gt;" style="rounded=1;whiteSpace=wrap;html=1;" vertex="1" parent="1">
          <mxGeometry x="750" y="900" width="110" height="50" as="geometry" />
        </mxCell>
        <mxCell id="81Mp2YH9ZiAPqtVmq8xA-15" value="&lt;font face=&quot;Times New Roman&quot; style=&quot;font-size: 14px;&quot;&gt;Movie Review&lt;/font&gt;" style="rounded=1;whiteSpace=wrap;html=1;" vertex="1" parent="1">
          <mxGeometry x="720" y="790" width="110" height="50" as="geometry" />
        </mxCell>
        <mxCell id="81Mp2YH9ZiAPqtVmq8xA-36" style="edgeStyle=orthogonalEdgeStyle;curved=1;rounded=0;orthogonalLoop=1;jettySize=auto;html=1;" edge="1" parent="1" source="81Mp2YH9ZiAPqtVmq8xA-16" target="81Mp2YH9ZiAPqtVmq8xA-15">
          <mxGeometry relative="1" as="geometry" />
        </mxCell>
        <mxCell id="81Mp2YH9ZiAPqtVmq8xA-67" value="&lt;font face=&quot;Times New Roman&quot; style=&quot;font-size: 14px;&quot;&gt;6&lt;/font&gt;" style="edgeLabel;html=1;align=center;verticalAlign=middle;resizable=0;points=[];" vertex="1" connectable="0" parent="81Mp2YH9ZiAPqtVmq8xA-36">
          <mxGeometry x="0.48" y="1" relative="1" as="geometry">
            <mxPoint x="7" y="-1" as="offset" />
          </mxGeometry>
        </mxCell>
        <mxCell id="81Mp2YH9ZiAPqtVmq8xA-16" value="&lt;font face=&quot;Times New Roman&quot; style=&quot;font-size: 14px;&quot;&gt;Bike Wise&lt;/font&gt;" style="rounded=1;whiteSpace=wrap;html=1;" vertex="1" parent="1">
          <mxGeometry x="880" y="790" width="110" height="50" as="geometry" />
        </mxCell>
        <mxCell id="81Mp2YH9ZiAPqtVmq8xA-37" style="rounded=0;orthogonalLoop=1;jettySize=auto;html=1;entryX=0.75;entryY=0;entryDx=0;entryDy=0;exitX=0.5;exitY=1;exitDx=0;exitDy=0;" edge="1" parent="1" source="81Mp2YH9ZiAPqtVmq8xA-17" target="81Mp2YH9ZiAPqtVmq8xA-15">
          <mxGeometry relative="1" as="geometry" />
        </mxCell>
        <mxCell id="81Mp2YH9ZiAPqtVmq8xA-62" value="&lt;font face=&quot;Times New Roman&quot; style=&quot;font-size: 14px;&quot;&gt;6&lt;/font&gt;" style="edgeLabel;html=1;align=center;verticalAlign=middle;resizable=0;points=[];" vertex="1" connectable="0" parent="81Mp2YH9ZiAPqtVmq8xA-37">
          <mxGeometry x="-0.1321" y="-9" relative="1" as="geometry">
            <mxPoint as="offset" />
          </mxGeometry>
        </mxCell>
        <mxCell id="81Mp2YH9ZiAPqtVmq8xA-47" style="edgeStyle=orthogonalEdgeStyle;curved=1;rounded=0;orthogonalLoop=1;jettySize=auto;html=1;exitX=1;exitY=0.5;exitDx=0;exitDy=0;entryX=0.75;entryY=1;entryDx=0;entryDy=0;" edge="1" parent="1" source="81Mp2YH9ZiAPqtVmq8xA-17" target="81Mp2YH9ZiAPqtVmq8xA-13">
          <mxGeometry relative="1" as="geometry">
            <Array as="points">
              <mxPoint x="1010" y="546" />
              <mxPoint x="1010" y="980" />
              <mxPoint x="573" y="980" />
            </Array>
          </mxGeometry>
        </mxCell>
        <mxCell id="81Mp2YH9ZiAPqtVmq8xA-64" value="&lt;font face=&quot;Times New Roman&quot; style=&quot;font-size: 14px;&quot;&gt;15&lt;/font&gt;" style="edgeLabel;html=1;align=center;verticalAlign=middle;resizable=0;points=[];" vertex="1" connectable="0" parent="81Mp2YH9ZiAPqtVmq8xA-47">
          <mxGeometry x="0.8074" y="-3" relative="1" as="geometry">
            <mxPoint as="offset" />
          </mxGeometry>
        </mxCell>
        <mxCell id="81Mp2YH9ZiAPqtVmq8xA-17" value="&lt;font face=&quot;Times New Roman&quot; style=&quot;font-size: 14px;&quot;&gt;Library Agent&lt;/font&gt;" style="rounded=1;whiteSpace=wrap;html=1;" vertex="1" parent="1">
          <mxGeometry x="820" y="521" width="110" height="50" as="geometry" />
        </mxCell>
        <mxCell id="81Mp2YH9ZiAPqtVmq8xA-30" style="rounded=0;orthogonalLoop=1;jettySize=auto;html=1;exitX=1;exitY=0.25;exitDx=0;exitDy=0;entryX=0;entryY=0.5;entryDx=0;entryDy=0;" edge="1" parent="1" source="81Mp2YH9ZiAPqtVmq8xA-18" target="81Mp2YH9ZiAPqtVmq8xA-20">
          <mxGeometry relative="1" as="geometry" />
        </mxCell>
        <mxCell id="81Mp2YH9ZiAPqtVmq8xA-57" value="&lt;font style=&quot;font-size: 14px;&quot;&gt;2&lt;/font&gt;" style="edgeLabel;html=1;align=center;verticalAlign=middle;resizable=0;points=[];" vertex="1" connectable="0" parent="81Mp2YH9ZiAPqtVmq8xA-30">
          <mxGeometry x="0.3307" y="14" relative="1" as="geometry">
            <mxPoint x="1" as="offset" />
          </mxGeometry>
        </mxCell>
        <mxCell id="81Mp2YH9ZiAPqtVmq8xA-44" style="edgeStyle=orthogonalEdgeStyle;curved=1;rounded=0;orthogonalLoop=1;jettySize=auto;html=1;exitX=0;exitY=0.5;exitDx=0;exitDy=0;entryX=0.25;entryY=1;entryDx=0;entryDy=0;" edge="1" parent="1" source="81Mp2YH9ZiAPqtVmq8xA-18" target="81Mp2YH9ZiAPqtVmq8xA-13">
          <mxGeometry relative="1" as="geometry">
            <Array as="points">
              <mxPoint x="140" y="685" />
              <mxPoint x="140" y="970" />
              <mxPoint x="518" y="970" />
            </Array>
          </mxGeometry>
        </mxCell>
        <mxCell id="81Mp2YH9ZiAPqtVmq8xA-73" value="&lt;font face=&quot;Times New Roman&quot; style=&quot;font-size: 14px;&quot;&gt;6&lt;/font&gt;" style="edgeLabel;html=1;align=center;verticalAlign=middle;resizable=0;points=[];" vertex="1" connectable="0" parent="81Mp2YH9ZiAPqtVmq8xA-44">
          <mxGeometry x="0.6648" y="-1" relative="1" as="geometry">
            <mxPoint as="offset" />
          </mxGeometry>
        </mxCell>
        <mxCell id="81Mp2YH9ZiAPqtVmq8xA-48" style="rounded=0;orthogonalLoop=1;jettySize=auto;html=1;exitX=0.75;exitY=1;exitDx=0;exitDy=0;entryX=0;entryY=0.25;entryDx=0;entryDy=0;" edge="1" parent="1" source="81Mp2YH9ZiAPqtVmq8xA-18" target="81Mp2YH9ZiAPqtVmq8xA-15">
          <mxGeometry relative="1" as="geometry" />
        </mxCell>
        <mxCell id="81Mp2YH9ZiAPqtVmq8xA-74" value="&lt;font face=&quot;Times New Roman&quot; style=&quot;font-size: 14px;&quot;&gt;6&lt;/font&gt;" style="edgeLabel;html=1;align=center;verticalAlign=middle;resizable=0;points=[];" vertex="1" connectable="0" parent="81Mp2YH9ZiAPqtVmq8xA-48">
          <mxGeometry x="-0.1426" y="3" relative="1" as="geometry">
            <mxPoint as="offset" />
          </mxGeometry>
        </mxCell>
        <mxCell id="81Mp2YH9ZiAPqtVmq8xA-59" style="edgeStyle=orthogonalEdgeStyle;curved=1;rounded=0;orthogonalLoop=1;jettySize=auto;html=1;exitX=0.073;exitY=-0.04;exitDx=0;exitDy=0;entryX=0.75;entryY=0;entryDx=0;entryDy=0;exitPerimeter=0;" edge="1" parent="1" source="81Mp2YH9ZiAPqtVmq8xA-18" target="81Mp2YH9ZiAPqtVmq8xA-17">
          <mxGeometry relative="1" as="geometry">
            <Array as="points">
              <mxPoint x="188" y="660" />
              <mxPoint x="190" y="660" />
              <mxPoint x="190" y="410" />
              <mxPoint x="903" y="410" />
            </Array>
          </mxGeometry>
        </mxCell>
        <mxCell id="81Mp2YH9ZiAPqtVmq8xA-60" value="&lt;font face=&quot;Times New Roman&quot; style=&quot;font-size: 14px;&quot;&gt;6&lt;/font&gt;" style="edgeLabel;html=1;align=center;verticalAlign=middle;resizable=0;points=[];" vertex="1" connectable="0" parent="81Mp2YH9ZiAPqtVmq8xA-59">
          <mxGeometry x="0.138" relative="1" as="geometry">
            <mxPoint as="offset" />
          </mxGeometry>
        </mxCell>
        <mxCell id="81Mp2YH9ZiAPqtVmq8xA-18" value="&lt;font face=&quot;Times New Roman&quot; style=&quot;font-size: 14px;&quot;&gt;Number To AreaCode&lt;/font&gt;" style="rounded=1;whiteSpace=wrap;html=1;" vertex="1" parent="1">
          <mxGeometry x="180" y="660" width="110" height="50" as="geometry" />
        </mxCell>
        <mxCell id="81Mp2YH9ZiAPqtVmq8xA-78" style="rounded=0;orthogonalLoop=1;jettySize=auto;html=1;exitX=0.5;exitY=0;exitDx=0;exitDy=0;entryX=0.75;entryY=1;entryDx=0;entryDy=0;" edge="1" parent="1" source="81Mp2YH9ZiAPqtVmq8xA-19" target="81Mp2YH9ZiAPqtVmq8xA-9">
          <mxGeometry relative="1" as="geometry" />
        </mxCell>
        <mxCell id="81Mp2YH9ZiAPqtVmq8xA-79" value="&lt;font style=&quot;font-size: 14px;&quot;&gt;3&lt;/font&gt;" style="edgeLabel;html=1;align=center;verticalAlign=middle;resizable=0;points=[];" vertex="1" connectable="0" parent="81Mp2YH9ZiAPqtVmq8xA-78">
          <mxGeometry x="0.7082" relative="1" as="geometry">
            <mxPoint as="offset" />
          </mxGeometry>
        </mxCell>
        <mxCell id="81Mp2YH9ZiAPqtVmq8xA-19" value="&lt;font face=&quot;Times New Roman&quot; style=&quot;font-size: 14px;&quot;&gt;Geo Location Time&lt;/font&gt;" style="rounded=1;whiteSpace=wrap;html=1;" vertex="1" parent="1">
          <mxGeometry x="470" y="770" width="110" height="50" as="geometry" />
        </mxCell>
        <mxCell id="81Mp2YH9ZiAPqtVmq8xA-31" style="rounded=0;orthogonalLoop=1;jettySize=auto;html=1;entryX=1;entryY=0.5;entryDx=0;entryDy=0;exitX=0.25;exitY=1;exitDx=0;exitDy=0;" edge="1" parent="1" source="81Mp2YH9ZiAPqtVmq8xA-20" target="81Mp2YH9ZiAPqtVmq8xA-19">
          <mxGeometry relative="1" as="geometry" />
        </mxCell>
        <mxCell id="81Mp2YH9ZiAPqtVmq8xA-54" value="&lt;font face=&quot;Times New Roman&quot; style=&quot;font-size: 14px;&quot;&gt;2&lt;/font&gt;" style="edgeLabel;html=1;align=center;verticalAlign=middle;resizable=0;points=[];" vertex="1" connectable="0" parent="81Mp2YH9ZiAPqtVmq8xA-31">
          <mxGeometry x="0.52" y="-14" relative="1" as="geometry">
            <mxPoint x="28" y="-15" as="offset" />
          </mxGeometry>
        </mxCell>
        <mxCell id="81Mp2YH9ZiAPqtVmq8xA-32" style="rounded=0;orthogonalLoop=1;jettySize=auto;html=1;exitX=0.75;exitY=1;exitDx=0;exitDy=0;entryX=0.5;entryY=0;entryDx=0;entryDy=0;" edge="1" parent="1" source="81Mp2YH9ZiAPqtVmq8xA-20" target="81Mp2YH9ZiAPqtVmq8xA-15">
          <mxGeometry relative="1" as="geometry" />
        </mxCell>
        <mxCell id="81Mp2YH9ZiAPqtVmq8xA-55" value="&lt;font style=&quot;font-size: 14px;&quot;&gt;6&lt;/font&gt;" style="edgeLabel;html=1;align=center;verticalAlign=middle;resizable=0;points=[];" vertex="1" connectable="0" parent="81Mp2YH9ZiAPqtVmq8xA-32">
          <mxGeometry x="0.3159" y="-6" relative="1" as="geometry">
            <mxPoint x="1" as="offset" />
          </mxGeometry>
        </mxCell>
        <mxCell id="81Mp2YH9ZiAPqtVmq8xA-35" style="rounded=0;orthogonalLoop=1;jettySize=auto;html=1;exitX=0;exitY=1;exitDx=0;exitDy=0;entryX=1;entryY=0.75;entryDx=0;entryDy=0;" edge="1" parent="1" source="81Mp2YH9ZiAPqtVmq8xA-20" target="81Mp2YH9ZiAPqtVmq8xA-18">
          <mxGeometry relative="1" as="geometry" />
        </mxCell>
        <mxCell id="81Mp2YH9ZiAPqtVmq8xA-56" value="&lt;font style=&quot;font-size: 14px;&quot; face=&quot;Times New Roman&quot;&gt;2&lt;/font&gt;" style="edgeLabel;html=1;align=center;verticalAlign=middle;resizable=0;points=[];" vertex="1" connectable="0" parent="81Mp2YH9ZiAPqtVmq8xA-35">
          <mxGeometry x="-0.2521" y="-16" relative="1" as="geometry">
            <mxPoint as="offset" />
          </mxGeometry>
        </mxCell>
        <mxCell id="81Mp2YH9ZiAPqtVmq8xA-20" value="&lt;font face=&quot;Times New Roman&quot; style=&quot;font-size: 14px;&quot;&gt;Weather API&lt;/font&gt;" style="rounded=1;whiteSpace=wrap;html=1;" vertex="1" parent="1">
          <mxGeometry x="610" y="650" width="110" height="50" as="geometry" />
        </mxCell>
        <mxCell id="81Mp2YH9ZiAPqtVmq8xA-26" style="edgeStyle=orthogonalEdgeStyle;curved=1;rounded=0;orthogonalLoop=1;jettySize=auto;html=1;exitX=0;exitY=0.25;exitDx=0;exitDy=0;entryX=0.25;entryY=0;entryDx=0;entryDy=0;" edge="1" parent="1" source="81Mp2YH9ZiAPqtVmq8xA-22" target="81Mp2YH9ZiAPqtVmq8xA-18">
          <mxGeometry relative="1" as="geometry" />
        </mxCell>
        <mxCell id="81Mp2YH9ZiAPqtVmq8xA-75" value="&lt;font face=&quot;Times New Roman&quot; style=&quot;font-size: 18px;&quot;&gt;2&lt;/font&gt;" style="edgeLabel;html=1;align=center;verticalAlign=middle;resizable=0;points=[];" vertex="1" connectable="0" parent="81Mp2YH9ZiAPqtVmq8xA-26">
          <mxGeometry x="-0.0259" y="27" relative="1" as="geometry">
            <mxPoint x="22" y="11" as="offset" />
          </mxGeometry>
        </mxCell>
        <mxCell id="81Mp2YH9ZiAPqtVmq8xA-46" style="rounded=0;orthogonalLoop=1;jettySize=auto;html=1;exitX=0.5;exitY=1;exitDx=0;exitDy=0;entryX=0.5;entryY=0;entryDx=0;entryDy=0;" edge="1" parent="1" source="81Mp2YH9ZiAPqtVmq8xA-22" target="81Mp2YH9ZiAPqtVmq8xA-20">
          <mxGeometry relative="1" as="geometry" />
        </mxCell>
        <mxCell id="81Mp2YH9ZiAPqtVmq8xA-58" value="&lt;font face=&quot;Times New Roman&quot; style=&quot;font-size: 14px;&quot;&gt;2&lt;/font&gt;" style="edgeLabel;html=1;align=center;verticalAlign=middle;resizable=0;points=[];" vertex="1" connectable="0" parent="81Mp2YH9ZiAPqtVmq8xA-46">
          <mxGeometry x="0.3941" y="-8" relative="1" as="geometry">
            <mxPoint as="offset" />
          </mxGeometry>
        </mxCell>
        <mxCell id="81Mp2YH9ZiAPqtVmq8xA-22" value="&lt;font face=&quot;Times New Roman&quot; style=&quot;font-size: 14px;&quot;&gt;IoT VAS&lt;/font&gt;" style="rounded=1;whiteSpace=wrap;html=1;" vertex="1" parent="1">
          <mxGeometry x="610" y="430" width="110" height="50" as="geometry" />
        </mxCell>
        <mxCell id="81Mp2YH9ZiAPqtVmq8xA-29" style="rounded=0;orthogonalLoop=1;jettySize=auto;html=1;exitX=1;exitY=0.75;exitDx=0;exitDy=0;entryX=0;entryY=0;entryDx=0;entryDy=0;" edge="1" parent="1" source="81Mp2YH9ZiAPqtVmq8xA-23" target="81Mp2YH9ZiAPqtVmq8xA-20">
          <mxGeometry relative="1" as="geometry" />
        </mxCell>
        <mxCell id="81Mp2YH9ZiAPqtVmq8xA-52" value="&lt;font style=&quot;font-size: 14px;&quot;&gt;3&lt;/font&gt;" style="edgeLabel;html=1;align=center;verticalAlign=middle;resizable=0;points=[];" vertex="1" connectable="0" parent="81Mp2YH9ZiAPqtVmq8xA-29">
          <mxGeometry x="0.1247" y="2" relative="1" as="geometry">
            <mxPoint as="offset" />
          </mxGeometry>
        </mxCell>
        <mxCell id="81Mp2YH9ZiAPqtVmq8xA-76" style="edgeStyle=orthogonalEdgeStyle;curved=1;rounded=0;orthogonalLoop=1;jettySize=auto;html=1;exitX=1;exitY=0.5;exitDx=0;exitDy=0;entryX=0;entryY=0.5;entryDx=0;entryDy=0;" edge="1" parent="1" source="81Mp2YH9ZiAPqtVmq8xA-23" target="81Mp2YH9ZiAPqtVmq8xA-9">
          <mxGeometry relative="1" as="geometry" />
        </mxCell>
        <mxCell id="81Mp2YH9ZiAPqtVmq8xA-77" value="&lt;font style=&quot;font-size: 14px;&quot;&gt;3&lt;/font&gt;" style="edgeLabel;html=1;align=center;verticalAlign=middle;resizable=0;points=[];" vertex="1" connectable="0" parent="81Mp2YH9ZiAPqtVmq8xA-76">
          <mxGeometry x="0.2216" relative="1" as="geometry">
            <mxPoint as="offset" />
          </mxGeometry>
        </mxCell>
        <mxCell id="81Mp2YH9ZiAPqtVmq8xA-23" value="&lt;font face=&quot;Times New Roman&quot; style=&quot;font-size: 14px;&quot;&gt;IP To Location&lt;/font&gt;" style="rounded=1;whiteSpace=wrap;html=1;" vertex="1" parent="1">
          <mxGeometry x="315" y="521" width="110" height="50" as="geometry" />
        </mxCell>
      </root>
    </mxGraphModel>
  </diagram>
</mxfile>
